<svg xmlns="http://www.w3.org/2000/svg" xmlns:osb="http://www.openswatchbook.org/uri/2009/osb" xmlns:svg="http://www.w3.org/2000/svg" id="Layer_1" width="512" height="512" x="0" y="0" enable-background="new 0 0 512 512" version="1.1" viewBox="0 0 512 512" xml:space="preserve"><metadata id="metadata15"/><defs id="defs13"><linearGradient id="linearGradient4613" osb:paint="solid"><stop style="stop-color:#f30000;stop-opacity:1" id="stop4611" offset="0"/></linearGradient></defs><rect style="fill:none;fill-opacity:1;stroke:#000;stroke-width:33.90000153;stroke-linecap:round;stroke-linejoin:round;stroke-miterlimit:4.19999981;stroke-dasharray:none;stroke-dashoffset:42.33071136;stroke-opacity:1" id="rect4545" width="361.423" height="355.523" x="61" y="57" ry="0"/><g id="g4543" transform="matrix(0.48046926,0,0,0.48046926,208,204)"><g id="g8"><path style="fill:none;fill-rule:evenodd;stroke:#000;stroke-width:51.90697479;stroke-linecap:round;stroke-linejoin:miter;stroke-miterlimit:4;stroke-dasharray:none;stroke-opacity:1" id="path4549-3" d="M -147.23062,226.66316 H 272.32644"/><path style="fill:none;fill-rule:evenodd;stroke:#000;stroke-width:51.90697479;stroke-linecap:round;stroke-linejoin:miter;stroke-miterlimit:4;stroke-dasharray:none;stroke-opacity:1" id="path4549-4" d="M -147.23062,91.727936 H 272.32644"/><g id="g6058" transform="translate(0,-1.4717004)"><g id="g6062" transform="translate(4.1625972,-8.3251948)"><path id="path2" d="m 586.23997,531.61033 -117.46895,-117.469 c -17.5,27.219 -40.656,50.375 -67.875,67.875 l 117.46895,117.469 c 18.75,18.75 49.156,18.75 67.875,0 18.75,-18.719 18.75,-49.125 0,-67.875 z" style="stroke:#fff;stroke-width:41.62597275;stroke-miterlimit:4;stroke-dasharray:none;stroke-opacity:1;paint-order:stroke fill markers"/><path id="path4" d="m 472.30202,293.54733 c 0,-106.031 -85.969,-192.00001 -192,-192.00001 -106.031,0 -191.999996,85.96901 -191.999996,192.00001 0,106.031 85.968996,192 191.999996,192 106.031,0 192,-85.969 192,-192 z m -192,144 c -79.406,0 -144,-64.594 -144,-144 0,-79.406 64.594,-144 144,-144 79.406,0 144,64.594 144,144 0,79.406 -64.594,144 -144,144 z" style="stroke:#fffff7;stroke-width:62.43895721;stroke-linecap:round;stroke-miterlimit:4;stroke-dasharray:none;stroke-opacity:1;paint-order:stroke fill markers"/></g></g><path style="fill:none;fill-rule:evenodd;stroke:#000;stroke-width:51.90697479;stroke-linecap:round;stroke-linejoin:miter;stroke-miterlimit:4;stroke-dasharray:none;stroke-opacity:1" id="path4549" d="M -147.23063,-178.14257 H 272.32645"/><path style="fill:none;fill-rule:evenodd;stroke:#000;stroke-width:51.90697479;stroke-linecap:round;stroke-linejoin:miter;stroke-miterlimit:4;stroke-dasharray:none;stroke-opacity:1" id="path4549-7" d="M -147.23062,-43.207349 H 272.32644"/></g></g></svg>