<svg xmlns="http://www.w3.org/2000/svg" xmlns:svg="http://www.w3.org/2000/svg" id="svg28" width="24" height="24" version="1.1"><metadata id="metadata34"/><g id="g26" transform="translate(0,-8)" style="stroke:#6e97c4"><path id="path2" d="m 2.5,15.5 h 19 v 14 h -19 z" style="fill:#e6e6e6"/><path id="path4" d="m 2.5,10.5 h 19 v 5 h -19 z" style="fill:#bad9ec"/><path id="path6" d="M 5,13 H 9" overflow="visible" style="overflow:visible;fill:none;stroke-width:2"/><path id="path8" d="m 11,13 h 7.999999" style="fill:none;stroke-width:2"/><path id="path10" d="M 5,17.5 H 9" overflow="visible" style="overflow:visible;fill:none"/><path id="path12" d="m 11,17.5 h 7.999999" style="fill:none"/><path id="path14" d="M 5,20.5 H 9" overflow="visible" style="overflow:visible;fill:none"/><path id="path16" d="m 11,20.5 h 7.999999" style="fill:none"/><path id="path18" d="M 5,23.5 H 9" overflow="visible" style="overflow:visible;fill:none"/><path id="path20" d="m 11,23.5 h 7.999999" style="fill:#fea"/><path id="path22" d="M 5,26.5 H 9" overflow="visible" style="overflow:visible;fill:none"/><path id="path24" d="m 11,26.5 h 7.999999" style="fill:none"/></g><path id="path2-4" d="m 22.84431,20.995459 -3.413469,-3.413471 c -0.508524,0.790943 -1.181403,1.463821 -1.972345,1.972345 l 3.413469,3.413471 c 0.544847,0.544847 1.428399,0.544847 1.972345,0 0.544846,-0.543945 0.544846,-1.427498 0,-1.972345 z" style="stroke:#fff;stroke-width:1;stroke-miterlimit:4;stroke-dasharray:none;stroke-opacity:1;paint-order:stroke fill markers"/><path id="path4-8" d="m 19.533446,14.07771 c 0,-3.081101 -2.498129,-5.5792305 -5.579229,-5.5792305 -3.081101,0 -5.5792297,2.4981295 -5.5792297,5.5792305 0,3.0811 2.4981287,5.579229 5.5792297,5.579229 3.0811,0 5.579229,-2.498129 5.579229,-5.579229 z m -5.579229,4.184422 c -2.307419,0 -4.1844227,-1.877004 -4.1844227,-4.184422 0,-2.307419 1.8770037,-4.1844235 4.1844227,-4.1844235 2.307418,0 4.184422,1.8770045 4.184422,4.1844235 0,2.307418 -1.877004,4.184422 -4.184422,4.184422 z" style="stroke:#fffff7;stroke-width:1;stroke-linecap:round;stroke-miterlimit:4.30000019;stroke-dasharray:none;stroke-opacity:1;paint-order:markers stroke fill"/></svg>